# MagicaVoxel @ Ephtracy

# group
o 

# material
mtllib glider.mtl
usemtl palette

# normals
vn -1 0 0
vn 1 0 0
vn 0 0 1
vn 0 0 -1
vn 0 -1 0
vn 0 1 0

# texcoords
vt 0.306641 0.5
vt 0.841797 0.5
vt 0.994141 0.5

# verts
v -1 1.9 -0.9
v -1 1.9 -1.1
v -1 2 -0.9
v -1 2 -1.1
v -0.9 1.9 -0.7
v -0.9 1.9 -0.9
v -0.9 2 -0.7
v -0.9 2 -0.9
v -0.8 1.9 -0.5
v -0.8 1.9 -0.7
v -0.8 2 -0.5
v -0.8 2 -0.7
v -0.7 1.9 -0.3
v -0.7 1.9 -0.5
v -0.7 2 -0.3
v -0.7 2 -0.5
v -0.6 1.9 -0.1
v -0.6 1.9 -0.3
v -0.6 2 -0.1
v -0.6 2 -0.3
v -0.5 1.9 0.2
v -0.5 1.9 -0.1
v -0.5 2 0.2
v -0.5 2 -0.1
v -0.4 1.9 0.4
v -0.4 1.9 0.2
v -0.4 2 0.4
v -0.4 2 0.2
v -0.3 1.9 0.6
v -0.3 1.9 0.4
v -0.3 2 0.6
v -0.3 2 0.4
v -0.2 1.9 0.8
v -0.2 1.9 0.6
v -0.2 2 0.8
v -0.2 2 0.6
v -0.1 1.9 1
v -0.1 1.9 0.8
v -0.1 2 1
v -0.1 2 0.8
v 0.1 1.9 1
v 0.1 1.9 0.8
v 0.1 2 1
v 0.1 2 0.8
v 0.2 1.9 0.8
v 0.2 1.9 0.6
v 0.2 2 0.8
v 0.2 2 0.6
v 0.3 1.9 0.6
v 0.3 1.9 0.4
v 0.3 2 0.6
v 0.3 2 0.4
v 0.4 1.9 0.4
v 0.4 1.9 0.2
v 0.4 2 0.4
v 0.4 2 0.2
v 0.5 1.9 0.2
v 0.5 1.9 -0.1
v 0.5 2 0.2
v 0.5 2 -0.1
v 0.6 1.9 -0.1
v 0.6 1.9 -0.3
v 0.6 2 -0.1
v 0.6 2 -0.3
v 0.7 1.9 -0.3
v 0.7 1.9 -0.5
v 0.7 2 -0.3
v 0.7 2 -0.5
v 0.8 1.9 -0.5
v 0.8 1.9 -0.7
v 0.8 2 -0.5
v 0.8 2 -0.7
v 0.9 1.9 -0.7
v 0.9 1.9 -0.9
v 0.9 2 -0.7
v 0.9 2 -0.9
v 1 1.9 -0.9
v 1 1.9 -1.1
v 1 2 -0.9
v 1 2 -1.1
v -0.1 1.9 1
v -0.1 2 1
v 0.1 1.9 1
v 0.1 2 1
v -0.2 1.9 0.8
v -0.2 2 0.8
v -0.1 1.9 0.8
v -0.1 2 0.8
v 0.1 1.9 0.8
v 0.1 2 0.8
v 0.2 1.9 0.8
v 0.2 2 0.8
v -0.3 1.9 0.6
v -0.3 2 0.6
v -0.2 1.9 0.6
v -0.2 2 0.6
v 0.2 1.9 0.6
v 0.2 2 0.6
v 0.3 1.9 0.6
v 0.3 2 0.6
v -0.4 1.9 0.4
v -0.4 2 0.4
v -0.3 1.9 0.4
v -0.3 2 0.4
v 0.3 1.9 0.4
v 0.3 2 0.4
v 0.4 1.9 0.4
v 0.4 2 0.4
v -0.5 1.9 0.2
v -0.5 2 0.2
v -0.4 1.9 0.2
v -0.4 2 0.2
v 0.4 1.9 0.2
v 0.4 2 0.2
v 0.5 1.9 0.2
v 0.5 2 0.2
v -0.6 1.9 -0.1
v -0.6 2 -0.1
v -0.5 1.9 -0.1
v -0.5 2 -0.1
v 0.5 1.9 -0.1
v 0.5 2 -0.1
v 0.6 1.9 -0.1
v 0.6 2 -0.1
v -0.7 1.9 -0.3
v -0.7 2 -0.3
v -0.6 1.9 -0.3
v -0.6 2 -0.3
v 0.6 1.9 -0.3
v 0.6 2 -0.3
v 0.7 1.9 -0.3
v 0.7 2 -0.3
v -0.8 1.9 -0.5
v -0.8 2 -0.5
v -0.7 1.9 -0.5
v -0.7 2 -0.5
v 0.7 1.9 -0.5
v 0.7 2 -0.5
v 0.8 1.9 -0.5
v 0.8 2 -0.5
v -0.9 1.9 -0.7
v -0.9 2 -0.7
v -0.8 1.9 -0.7
v -0.8 2 -0.7
v 0.8 1.9 -0.7
v 0.8 2 -0.7
v 0.9 1.9 -0.7
v 0.9 2 -0.7
v -1 1.9 -0.9
v -1 2 -0.9
v -0.9 1.9 -0.9
v -0.9 2 -0.9
v 0.9 1.9 -0.9
v 0.9 2 -0.9
v 1 1.9 -0.9
v 1 2 -0.9
v -1 1.9 -1.1
v -1 2 -1.1
v 1 1.9 -1.1
v 1 2 -1.1
v -0.1 1.9 1
v 0.1 1.9 1
v -0.2 1.9 0.8
v -0.1 1.9 0.8
v 0.1 1.9 0.8
v 0.2 1.9 0.8
v -0.3 1.9 0.6
v -0.2 1.9 0.6
v -0.1 1.9 0.6
v 0.1 1.9 0.6
v 0.2 1.9 0.6
v 0.3 1.9 0.6
v -0.4 1.9 0.4
v -0.3 1.9 0.4
v -0.2 1.9 0.4
v 0.2 1.9 0.4
v 0.3 1.9 0.4
v 0.4 1.9 0.4
v -0.5 1.9 0.2
v -0.4 1.9 0.2
v -0.3 1.9 0.2
v 0.3 1.9 0.2
v 0.4 1.9 0.2
v 0.5 1.9 0.2
v -0.6 1.9 -0.1
v -0.5 1.9 -0.1
v -0.4 1.9 -0.1
v 0.4 1.9 -0.1
v 0.5 1.9 -0.1
v 0.6 1.9 -0.1
v -0.7 1.9 -0.3
v -0.6 1.9 -0.3
v -0.5 1.9 -0.3
v 0.5 1.9 -0.3
v 0.6 1.9 -0.3
v 0.7 1.9 -0.3
v -0.8 1.9 -0.5
v -0.7 1.9 -0.5
v -0.6 1.9 -0.5
v 0.6 1.9 -0.5
v 0.7 1.9 -0.5
v 0.8 1.9 -0.5
v -0.9 1.9 -0.7
v -0.8 1.9 -0.7
v -0.7 1.9 -0.7
v 0.7 1.9 -0.7
v 0.8 1.9 -0.7
v 0.9 1.9 -0.7
v -1 1.9 -0.9
v -0.9 1.9 -0.9
v -0.8 1.9 -0.9
v 0.8 1.9 -0.9
v 0.9 1.9 -0.9
v 1 1.9 -0.9
v -0.9 1.9 -1
v -0.1 1.9 -1
v 0.1 1.9 -1
v 0.9 1.9 -1
v -1 1.9 -1.1
v 1 1.9 -1.1
v -0.1 2 1
v 0.1 2 1
v -0.2 2 0.8
v -0.1 2 0.8
v 0.1 2 0.8
v 0.2 2 0.8
v -0.3 2 0.6
v -0.2 2 0.6
v -0.1 2 0.6
v 0.1 2 0.6
v 0.2 2 0.6
v 0.3 2 0.6
v -0.4 2 0.4
v -0.3 2 0.4
v -0.2 2 0.4
v 0.2 2 0.4
v 0.3 2 0.4
v 0.4 2 0.4
v -0.5 2 0.2
v -0.4 2 0.2
v -0.3 2 0.2
v 0.3 2 0.2
v 0.4 2 0.2
v 0.5 2 0.2
v -0.6 2 -0.1
v -0.5 2 -0.1
v -0.4 2 -0.1
v 0.4 2 -0.1
v 0.5 2 -0.1
v 0.6 2 -0.1
v -0.7 2 -0.3
v -0.6 2 -0.3
v -0.5 2 -0.3
v 0.5 2 -0.3
v 0.6 2 -0.3
v 0.7 2 -0.3
v -0.8 2 -0.5
v -0.7 2 -0.5
v -0.6 2 -0.5
v 0.6 2 -0.5
v 0.7 2 -0.5
v 0.8 2 -0.5
v -0.9 2 -0.7
v -0.8 2 -0.7
v -0.7 2 -0.7
v 0.7 2 -0.7
v 0.8 2 -0.7
v 0.9 2 -0.7
v -1 2 -0.9
v -0.9 2 -0.9
v -0.8 2 -0.9
v 0.8 2 -0.9
v 0.9 2 -0.9
v 1 2 -0.9
v -0.9 2 -1
v -0.1 2 -1
v 0.1 2 -1
v 0.9 2 -1
v -1 2 -1.1
v 1 2 -1.1

# faces
f 3/3/1 2/3/1 1/3/1
f 4/3/1 2/3/1 3/3/1
f 7/3/1 6/3/1 5/3/1
f 8/3/1 6/3/1 7/3/1
f 11/3/1 10/3/1 9/3/1
f 12/3/1 10/3/1 11/3/1
f 15/3/1 14/3/1 13/3/1
f 16/3/1 14/3/1 15/3/1
f 19/3/1 18/3/1 17/3/1
f 20/3/1 18/3/1 19/3/1
f 23/3/1 22/3/1 21/3/1
f 24/3/1 22/3/1 23/3/1
f 27/3/1 26/3/1 25/3/1
f 28/3/1 26/3/1 27/3/1
f 31/3/1 30/3/1 29/3/1
f 32/3/1 30/3/1 31/3/1
f 35/3/1 34/3/1 33/3/1
f 36/3/1 34/3/1 35/3/1
f 39/3/1 38/3/1 37/3/1
f 40/3/1 38/3/1 39/3/1
f 41/3/2 42/3/2 43/3/2
f 43/3/2 42/3/2 44/3/2
f 45/3/2 46/3/2 47/3/2
f 47/3/2 46/3/2 48/3/2
f 49/3/2 50/3/2 51/3/2
f 51/3/2 50/3/2 52/3/2
f 53/3/2 54/3/2 55/3/2
f 55/3/2 54/3/2 56/3/2
f 57/3/2 58/3/2 59/3/2
f 59/3/2 58/3/2 60/3/2
f 61/3/2 62/3/2 63/3/2
f 63/3/2 62/3/2 64/3/2
f 65/3/2 66/3/2 67/3/2
f 67/3/2 66/3/2 68/3/2
f 69/3/2 70/3/2 71/3/2
f 71/3/2 70/3/2 72/3/2
f 73/3/2 74/3/2 75/3/2
f 75/3/2 74/3/2 76/3/2
f 77/3/2 78/3/2 79/3/2
f 79/3/2 78/3/2 80/3/2
f 83/3/3 82/3/3 81/3/3
f 84/3/3 82/3/3 83/3/3
f 87/3/3 86/3/3 85/3/3
f 88/3/3 86/3/3 87/3/3
f 91/3/3 90/3/3 89/3/3
f 92/3/3 90/3/3 91/3/3
f 95/3/3 94/3/3 93/3/3
f 96/3/3 94/3/3 95/3/3
f 99/3/3 98/3/3 97/3/3
f 100/3/3 98/3/3 99/3/3
f 103/3/3 102/3/3 101/3/3
f 104/3/3 102/3/3 103/3/3
f 107/3/3 106/3/3 105/3/3
f 108/3/3 106/3/3 107/3/3
f 111/3/3 110/3/3 109/3/3
f 112/3/3 110/3/3 111/3/3
f 115/3/3 114/3/3 113/3/3
f 116/3/3 114/3/3 115/3/3
f 119/3/3 118/3/3 117/3/3
f 120/3/3 118/3/3 119/3/3
f 123/3/3 122/3/3 121/3/3
f 124/3/3 122/3/3 123/3/3
f 127/3/3 126/3/3 125/3/3
f 128/3/3 126/3/3 127/3/3
f 131/3/3 130/3/3 129/3/3
f 132/3/3 130/3/3 131/3/3
f 135/3/3 134/3/3 133/3/3
f 136/3/3 134/3/3 135/3/3
f 139/3/3 138/3/3 137/3/3
f 140/3/3 138/3/3 139/3/3
f 143/3/3 142/3/3 141/3/3
f 144/3/3 142/3/3 143/3/3
f 147/3/3 146/3/3 145/3/3
f 148/3/3 146/3/3 147/3/3
f 151/3/3 150/3/3 149/3/3
f 152/3/3 150/3/3 151/3/3
f 155/3/3 154/3/3 153/3/3
f 156/3/3 154/3/3 155/3/3
f 157/3/4 158/3/4 159/3/4
f 159/3/4 158/3/4 160/3/4
f 164/3/5 162/3/5 161/3/5
f 165/3/5 162/3/5 164/3/5
f 168/3/5 164/3/5 163/3/5
f 169/2/5 165/2/5 164/2/5
f 169/3/5 164/3/5 168/3/5
f 170/3/5 166/3/5 165/3/5
f 170/2/5 165/2/5 169/2/5
f 171/3/5 166/3/5 170/3/5
f 174/3/5 168/3/5 167/3/5
f 175/1/5 169/1/5 168/1/5
f 175/3/5 168/3/5 174/3/5
f 176/3/5 172/3/5 171/3/5
f 176/1/5 171/1/5 170/1/5
f 177/3/5 172/3/5 176/3/5
f 180/3/5 174/3/5 173/3/5
f 181/1/5 175/1/5 174/1/5
f 181/3/5 174/3/5 180/3/5
f 182/3/5 178/3/5 177/3/5
f 182/1/5 177/1/5 176/1/5
f 183/3/5 178/3/5 182/3/5
f 186/3/5 180/3/5 179/3/5
f 187/1/5 181/1/5 180/1/5
f 187/3/5 180/3/5 186/3/5
f 188/3/5 184/3/5 183/3/5
f 188/1/5 183/1/5 182/1/5
f 189/3/5 184/3/5 188/3/5
f 192/3/5 186/3/5 185/3/5
f 193/1/5 187/1/5 186/1/5
f 193/3/5 186/3/5 192/3/5
f 194/3/5 190/3/5 189/3/5
f 194/1/5 189/1/5 188/1/5
f 195/3/5 190/3/5 194/3/5
f 198/3/5 192/3/5 191/3/5
f 199/1/5 193/1/5 192/1/5
f 199/3/5 192/3/5 198/3/5
f 200/3/5 196/3/5 195/3/5
f 200/1/5 195/1/5 194/1/5
f 201/3/5 196/3/5 200/3/5
f 204/3/5 198/3/5 197/3/5
f 205/1/5 199/1/5 198/1/5
f 205/3/5 198/3/5 204/3/5
f 206/3/5 202/3/5 201/3/5
f 206/1/5 201/1/5 200/1/5
f 207/3/5 202/3/5 206/3/5
f 210/3/5 204/3/5 203/3/5
f 211/1/5 205/1/5 204/1/5
f 211/3/5 204/3/5 210/3/5
f 212/3/5 208/3/5 207/3/5
f 212/1/5 207/1/5 206/1/5
f 213/3/5 208/3/5 212/3/5
f 215/3/5 210/3/5 209/3/5
f 215/1/5 211/1/5 210/1/5
f 216/1/5 175/1/5 181/1/5
f 216/1/5 211/1/5 215/1/5
f 216/1/5 169/1/5 175/1/5
f 216/2/5 170/2/5 169/2/5
f 216/1/5 181/1/5 187/1/5
f 216/1/5 187/1/5 193/1/5
f 216/1/5 193/1/5 199/1/5
f 216/1/5 199/1/5 205/1/5
f 216/1/5 205/1/5 211/1/5
f 217/1/5 212/1/5 206/1/5
f 217/2/5 170/2/5 216/2/5
f 217/1/5 213/1/5 212/1/5
f 217/1/5 176/1/5 170/1/5
f 217/1/5 200/1/5 194/1/5
f 217/1/5 194/1/5 188/1/5
f 217/1/5 206/1/5 200/1/5
f 217/1/5 182/1/5 176/1/5
f 217/1/5 188/1/5 182/1/5
f 218/3/5 214/3/5 213/3/5
f 218/1/5 213/1/5 217/1/5
f 219/3/5 215/3/5 209/3/5
f 219/3/5 216/3/5 215/3/5
f 219/3/5 218/3/5 217/3/5
f 219/3/5 217/3/5 216/3/5
f 220/3/5 214/3/5 218/3/5
f 220/3/5 218/3/5 219/3/5
f 221/3/6 222/3/6 224/3/6
f 224/3/6 222/3/6 225/3/6
f 223/3/6 224/3/6 228/3/6
f 224/2/6 225/2/6 229/2/6
f 228/3/6 224/3/6 229/3/6
f 225/3/6 226/3/6 230/3/6
f 229/2/6 225/2/6 230/2/6
f 230/3/6 226/3/6 231/3/6
f 227/3/6 228/3/6 234/3/6
f 228/1/6 229/1/6 235/1/6
f 234/3/6 228/3/6 235/3/6
f 231/3/6 232/3/6 236/3/6
f 230/1/6 231/1/6 236/1/6
f 236/3/6 232/3/6 237/3/6
f 233/3/6 234/3/6 240/3/6
f 234/1/6 235/1/6 241/1/6
f 240/3/6 234/3/6 241/3/6
f 237/3/6 238/3/6 242/3/6
f 236/1/6 237/1/6 242/1/6
f 242/3/6 238/3/6 243/3/6
f 239/3/6 240/3/6 246/3/6
f 240/1/6 241/1/6 247/1/6
f 246/3/6 240/3/6 247/3/6
f 243/3/6 244/3/6 248/3/6
f 242/1/6 243/1/6 248/1/6
f 248/3/6 244/3/6 249/3/6
f 245/3/6 246/3/6 252/3/6
f 246/1/6 247/1/6 253/1/6
f 252/3/6 246/3/6 253/3/6
f 249/3/6 250/3/6 254/3/6
f 248/1/6 249/1/6 254/1/6
f 254/3/6 250/3/6 255/3/6
f 251/3/6 252/3/6 258/3/6
f 252/1/6 253/1/6 259/1/6
f 258/3/6 252/3/6 259/3/6
f 255/3/6 256/3/6 260/3/6
f 254/1/6 255/1/6 260/1/6
f 260/3/6 256/3/6 261/3/6
f 257/3/6 258/3/6 264/3/6
f 258/1/6 259/1/6 265/1/6
f 264/3/6 258/3/6 265/3/6
f 261/3/6 262/3/6 266/3/6
f 260/1/6 261/1/6 266/1/6
f 266/3/6 262/3/6 267/3/6
f 263/3/6 264/3/6 270/3/6
f 264/1/6 265/1/6 271/1/6
f 270/3/6 264/3/6 271/3/6
f 267/3/6 268/3/6 272/3/6
f 266/1/6 267/1/6 272/1/6
f 272/3/6 268/3/6 273/3/6
f 269/3/6 270/3/6 275/3/6
f 270/1/6 271/1/6 275/1/6
f 241/1/6 235/1/6 276/1/6
f 275/1/6 271/1/6 276/1/6
f 235/1/6 229/1/6 276/1/6
f 229/2/6 230/2/6 276/2/6
f 247/1/6 241/1/6 276/1/6
f 253/1/6 247/1/6 276/1/6
f 259/1/6 253/1/6 276/1/6
f 265/1/6 259/1/6 276/1/6
f 271/1/6 265/1/6 276/1/6
f 266/1/6 272/1/6 277/1/6
f 276/2/6 230/2/6 277/2/6
f 272/1/6 273/1/6 277/1/6
f 230/1/6 236/1/6 277/1/6
f 254/1/6 260/1/6 277/1/6
f 248/1/6 254/1/6 277/1/6
f 260/1/6 266/1/6 277/1/6
f 236/1/6 242/1/6 277/1/6
f 242/1/6 248/1/6 277/1/6
f 273/3/6 274/3/6 278/3/6
f 277/1/6 273/1/6 278/1/6
f 269/3/6 275/3/6 279/3/6
f 275/3/6 276/3/6 279/3/6
f 277/3/6 278/3/6 279/3/6
f 276/3/6 277/3/6 279/3/6
f 278/3/6 274/3/6 280/3/6
f 279/3/6 278/3/6 280/3/6
